//+
Point(1) = {10, 0, 0, 1.0};
//+
Point(2) = {-10, 0, 0, 1.0};
//+
Point(3) = {0, 10, 0, 1.0};
//+
Point(4) = {0, -10, 0, 1.0};
//+
Point(5) = {0, -10, 10, 1.0};
//+
Point(6) = {0, 10, 10, 1.0};
//+
Point(7) = {10, 0, 10, 1.0};
//+
Point(8) = {-10, 0, 10, 1.0};
//+
Line(1) = {2, 8};
//+
Line(2) = {6, 3};
//+
Line(3) = {4, 5};
//+
Line(4) = {1, 7};
//+
Line(5) = {2, 3};
//+
Line(6) = {8, 6};
//+
Line(7) = {6, 7};
//+
Line(8) = {1, 3};
//+
Line(9) = {2, 4};
//+
Line(10) = {4, 1};
//+
Line(11) = {5, 7};
//+
Line(12) = {8, 5};
//+
Point(9) = {20, 20, 0, 1.0};
//+
Point(10) = {-20, 20, 0, 1.0};
//+
Point(11) = {-20, -20, 0, 1.0};
//+
Point(12) = {20, -20, 0, 1.0};
//+
Point(13) = {20, -20, 20, 1.0};
//+
Point(14) = {-20, -20, 20, 1.0};
//+
Point(15) = {-20, 20, 20, 1.0};
//+
Point(16) = {20, 20, 20, 1.0};
//+
Line(13) = {10, 15};
//+
Line(14) = {15, 16};
//+
Line(15) = {16, 13};
//+
Line(16) = {13, 14};
//+
Line(17) = {14, 15};
//+
Line(18) = {10, 11};
//+
Line(19) = {11, 14};
//+
Line(20) = {11, 12};
//+
Line(21) = {12, 13};
//+
Line(22) = {9, 16};
//+
Line(23) = {9, 12};
//+
Line(24) = {10, 9};
//+
Line Loop(1) = {17, 14, 15, 16};
//+
Plane Surface(1) = {1};
//+
Line Loop(2) = {20, -23, -24, 18};
//+
Plane Surface(2) = {2};
//+
Line Loop(3) = {13, 14, -22, -24};
//+
Plane Surface(3) = {3};
//+
Line Loop(4) = {16, -19, 20, 21};
//+
Plane Surface(4) = {4};
//+
Line Loop(5) = {17, -13, 18, 19};
//+
Plane Surface(5) = {5};
//+
Line Loop(6) = {22, 15, -21, -23};
//+
Plane Surface(6) = {6};
//+
Surface Loop(1) = {5, 1, 3, 6, 4, 2};
//+
Line Loop(7) = {7, -11, -12, 6};
//+
Plane Surface(7) = {7};
//+
Line Loop(8) = {8, -5, 9, 10};
//+
Plane Surface(8) = {8};
//+
Line Loop(9) = {2, -5, 1, 6};
//+
Plane Surface(9) = {9};
//+
Line Loop(10) = {3, 11, -4, -10};
//+
Plane Surface(10) = {10};
//+
Line Loop(11) = {2, -8, 4, -7};
//+
Plane Surface(11) = {11};
//+
Line Loop(12) = {1, 12, -3, -9};
//+
Plane Surface(12) = {12};
//+
Surface Loop(2) = {12, 9, 11, 8, 10, 7};
//+
Volume(1) = {2};
//+
Volume(2) = {1, 2};
//+
Physical Volume("Inner") = {1};
//+
Physical Volume("Media") = {2};
//+
Translate {0, 0, -20} {
  Point{10}; Point{11}; Point{12}; Point{9}; 
}
